<svg version="1.2" xmlns="http://www.w3.org/2000/svg" viewBox="0 0 9000 4000" width="1500" height="667">
	<title>30750245_banner_3-ai</title>
	<defs>
		<clipPath clipPathUnits="userSpaceOnUse" id="cp1">
			<path d="m0.5 280.39c592.15 778.12 1587.84 1703.58 2667.01 1064.71 422.1-249.88 851.68-416.12 1265.14-496.42 493.06-95.77 963.27-69.39 1370.61 82.96 407.43 152.37 751.96 430.75 993.57 838.87 140.14 236.72 245.66 517.12 308.74 841.86 62.82 323.39 155.87 514.21 267.59 599.72 99.05 75.81 213.04 68.63 333.8-2.36 121.35-71.34 249.54-207.01 376.35-387.69 444.44-633.19 871.4-1818.31 929.53-2726.82 2.11-33.04 4.67-64.51 7.45-95.22h10.01c-0.99 9.3-2.1 18.21-3.02 27.74 1.07-9.54 2.32-18.45 3.46-27.74h5c-3.04 24.65-5.9 49.96-8.46 76.34 2.98-26.46 6.3-51.72 9.78-76.34h5.17c-5.62 39.35-10.67 80.78-14.95 124.94 4.99-44.26 10.73-85.79 17.11-124.94h5.39c-8.77 53.23-16.4 110.66-22.5 173.54 7.11-63.17 15.8-120.67 25.73-173.54h5.38c-12.55 66.09-23.09 139.57-31.11 222.14 9.36-83.15 21.4-156.64 35.57-222.14h5.42c-17.03 77.83-30.95 167.34-40.99 270.74 11.76-104.41 27.67-193.84 46.88-270.74h5.52c-22.34 88.31-40.21 193.71-52.4 319.34 14.33-127.25 34.77-232.47 59.96-319.34h5.69c-28.62 97.32-51.13 218.37-65.65 367.94 17.11-151.98 42.89-272.77 75.17-367.94h5.99c-36.08 104.56-64.11 240.94-81.16 416.54 20.16-179.07 52.27-315.17 93-416.54h6.46c-44.98 109.59-79.63 260.9-99.46 465.14 23.58-209.44 63.48-360.19 114.45-465.14h6.76c-55.65 111.8-98.29 277.59-121.21 513.75 27.51-244.36 77.25-408.8 140.88-513.75h7.62c-68.98 110.12-121.97 289.01-148.5 562.35 32.21-286.1 94.85-462.73 174.67-562.35h8.86c-86.04 102.6-152.66 292.96-183.53 610.95 38.29-340.12 119.5-525.92 221.58-610.95h11.99c-110.05 84.37-196.94 282.26-233.57 659.55 48.87-434.02 167.56-616.99 310.42-659.55h36.64c-161.92 23.11-298.56 208.44-347.06 708.15 66.59-591.44 262.87-716.58 473.22-655.69v7.19c-213.68-61.23-412.5 71.55-473.22 697.1 66.59-591.44 262.87-716.58 473.22-655.69v7.19c-213.68-61.23-412.5 71.55-473.22 697.1 66.59-591.44 262.87-716.58 473.22-655.69v7.19c-213.68-61.23-412.5 71.55-473.22 697.1 66.59-591.44 262.87-716.58 473.22-655.69v7.19c-213.68-61.23-412.5 71.55-473.22 697.1 66.59-591.44 262.87-716.58 473.22-655.69v7.19c-213.68-61.23-412.5 71.55-473.22 697.1 66.59-591.43 262.87-716.58 473.22-655.69v7.19c-213.68-61.23-412.5 71.55-473.22 697.1 66.59-591.43 262.87-716.58 473.22-655.68v7.18c-213.68-61.23-412.5 71.55-473.22 697.1 66.59-591.43 262.87-716.58 473.22-655.69v7.19c-213.68-61.23-412.5 71.55-473.22 697.1 66.59-591.43 262.87-716.57 473.22-655.68v7.18c-213.68-61.22-412.5 71.55-473.22 697.1 66.59-591.43 262.87-716.57 473.22-655.68v7.18c-213.68-61.22-412.5 71.55-473.22 697.1 66.59-591.43 262.87-716.57 473.22-655.68v7.19c-213.68-61.23-412.5 71.54-473.22 697.1 66.59-591.44 262.87-716.58 473.22-655.69v7.19c-213.68-61.23-412.5 71.55-473.22 697.1 66.59-591.44 262.87-716.58 473.22-655.69v7.19c-213.68-61.23-412.5 71.55-473.22 697.1 66.59-591.44 262.87-716.58 473.22-655.69v7.19c-213.68-61.23-412.5 71.55-473.22 697.1 66.59-591.44 262.87-716.58 473.22-655.69v7.19c-213.68-61.23-412.5 71.55-473.22 697.1 66.59-591.44 262.87-716.58 473.22-655.69v7.19c-213.68-61.23-412.5 71.55-473.22 697.1 66.59-591.44 262.87-716.58 473.22-655.69v7.19c-213.68-61.23-412.5 71.55-473.22 697.1 66.59-591.44 262.87-716.58 473.22-655.69v6.82c-226.46-65.06-436.25 87.75-482.72 813.86-46.82 731.64-332.65 1642.47-674.28 2300.65h-5.51c323.11-621.7 596.45-1469.96 664.99-2179.09-77.95 717.6-358.41 1566.87-685.01 2179.09h-5.63c334.2-625.56 620.29-1499.88 690.64-2227.68-80.04 736.8-373.58 1612.38-711.35 2227.68h-5.62c345.41-628.29 644.78-1529.43 716.97-2276.29-82.17 756.41-389.35 1659.12-738.4 2276.29h-5.66c356.75-629.78 669.99-1558.56 744.06-2324.89-84.35 776.54-405.85 1707.22-766.34 2324.89h-5.73c368.25-629.87 696.07-1587.18 772.07-2373.49-86.59 797.18-423.11 1756.82-795.17 2373.49h-5.73c379.85-628.42 722.93-1615.31 800.9-2422.09-88.91 818.45-441.25 1808.13-825.02 2422.09h-5.84c391.63-625.23 750.84-1642.75 830.86-2470.69-91.29 840.39-460.33 1861.37-855.95 2470.69h-5.9c403.51-620.07 779.72-1669.56 861.85-2519.29-93.77 863.18-480.55 1916.83-888.19 2519.29h-5.97c415.56-612.64 809.84-1695.52 894.16-2567.89-95.87 882.53-498.03 1964.24-915.63 2559.19l-6.13 8.7h-6.07l8.16-11.54c424.82-605.25 833.63-1714.74 919.67-2604.95-95.87 882.53-498.03 1964.24-915.63 2559.19q-20.68 29.47-41.39 57.3h-6.17q21.78-29.16 43.52-60.14c424.82-605.25 833.63-1714.74 919.67-2604.95-95.87 882.53-498.03 1964.24-915.63 2559.19-26.15 37.26-52.37 72.62-78.58 105.9h-6.29c26.95-34.1 53.92-70.41 80.83-108.74 424.82-605.25 833.63-1714.74 919.67-2604.95-95.87 882.52-498.03 1964.24-915.63 2559.19-39.3 56-78.74 107.68-118.09 154.5h-6.46c40.13-47.54 80.39-100.18 120.51-157.35 424.82-605.24 833.63-1714.73 919.67-2604.94-95.87 882.52-498.03 1964.24-915.63 2559.19-53.43 76.13-107.14 144.32-160.49 203.1h-6.68c54.2-59.37 108.79-128.52 163.13-205.94 424.82-605.25 833.63-1714.74 919.67-2604.95-95.87 882.52-498.03 1964.24-915.63 2559.19-68.88 98.15-138.22 183.06-206.68 251.7h-6.98c69.37-69.01 139.71-154.93 209.62-254.55 424.82-605.24 833.63-1714.74 919.67-2604.95-95.87 882.53-498.03 1964.25-915.63 2559.2-86.19 122.81-173.08 224.91-258.11 300.3h-7.45c86.04-75.45 174.11-178.6 261.52-303.15 424.82-605.24 833.63-1714.74 919.67-2604.95-95.87 882.53-498.03 1964.25-915.63 2559.2-106.43 151.64-213.91 271.72-317.65 348.9h-8.31c104.92-76.65 213.92-197.87 321.92-351.75 424.82-605.25 833.63-1714.74 919.67-2604.95-95.87 882.53-498.03 1964.24-915.63 2559.2-127.19 181.21-255.9 317.37-377.89 389.09q-7.44 4.36-14.83 8.41h-10.43q11.34-5.95 22.76-12.66c121.35-71.34 249.54-207.01 376.35-387.69 424.82-605.25 833.63-1714.74 919.67-2604.95-95.87 882.53-498.03 1964.24-915.63 2559.2-127.19 181.21-255.9 317.37-377.89 389.09-61.77 36.32-121.84 56.15-179.13 57.01h-7.53c-53.67-0.76-104.84-18.38-152.64-54.97-112.67-86.23-206.38-278.04-269.45-602.73-62.97-324.18-168.28-604.04-308.13-840.27-241-407.1-584.66-684.77-991.03-836.76-406.47-152.01-875.77-178.33-1367.97-82.72-412.93 80.2-841.97 246.23-1263.57 495.81-1079.99 639.35-2075.91-282.56-2669.51-1060.84v-8.12c592.15 778.12 1587.84 1703.58 2667.01 1064.71 422.1-249.88 851.68-416.12 1265.14-496.42 493.06-95.77 963.27-69.39 1370.61 82.96 407.43 152.38 751.96 430.75 993.57 838.88 140.14 236.71 245.66 517.11 308.74 841.85 62.82 323.39 155.87 514.22 267.59 599.72 99.05 75.81 213.04 68.64 333.8-2.36 121.35-71.34 249.54-207.01 376.35-387.69 424.82-605.25 833.63-1714.74 919.67-2604.95-95.87 882.53-498.03 1964.24-915.63 2559.2-127.19 181.21-255.9 317.37-377.89 389.09-122.58 72.07-238.44 79.24-339.3 2.04-112.67-86.23-206.38-278.04-269.45-602.73-62.97-324.18-168.28-604.04-308.13-840.27-241-407.1-584.66-684.77-991.03-836.76-406.47-152.01-875.77-178.33-1367.97-82.72-412.93 80.2-841.97 246.23-1263.57 495.81-1079.99 639.35-2075.91-282.56-2669.51-1060.84v-8.12c592.15 778.12 1587.84 1703.58 2667.01 1064.71 422.1-249.88 851.68-416.12 1265.14-496.42 493.06-95.77 963.27-69.39 1370.61 82.95 407.43 152.38 751.96 430.76 993.57 838.88 140.14 236.72 245.66 517.12 308.74 841.86 62.82 323.39 155.87 514.22 267.59 599.72 99.05 75.81 213.04 68.64 333.8-2.36 121.35-71.34 249.54-207.01 376.35-387.69 424.82-605.25 833.63-1714.74 919.67-2604.95-95.87 882.53-498.03 1964.24-915.63 2559.2-127.19 181.21-255.9 317.37-377.89 389.09-122.58 72.07-238.44 79.24-339.3 2.04-112.67-86.23-206.38-278.04-269.45-602.73-62.97-324.18-168.28-604.04-308.13-840.27-241-407.1-584.66-684.78-991.03-836.76-406.47-152.01-875.77-178.33-1367.97-82.72-412.93 80.2-841.97 246.23-1263.57 495.81-1079.99 639.35-2075.91-282.57-2669.51-1060.84v-8.12c592.15 778.12 1587.84 1703.58 2667.01 1064.71 422.1-249.88 851.68-416.12 1265.14-496.42 493.06-95.77 963.27-69.39 1370.61 82.95 407.43 152.38 751.96 430.75 993.57 838.88 140.14 236.72 245.66 517.12 308.74 841.86 62.82 323.39 155.87 514.21 267.59 599.72 99.05 75.81 213.04 68.63 333.8-2.36 121.35-71.34 249.54-207.01 376.35-387.69 424.82-605.25 833.63-1714.74 919.67-2604.95-95.87 882.53-498.03 1964.24-915.63 2559.19-127.19 181.22-255.9 317.38-377.89 389.1-122.58 72.07-238.44 79.23-339.3 2.04-112.67-86.23-206.38-278.04-269.45-602.73-62.97-324.18-168.28-604.04-308.13-840.27-241-407.11-584.66-684.78-991.03-836.76-406.47-152.02-875.77-178.33-1367.97-82.72-412.93 80.2-841.97 246.23-1263.57 495.81-1079.99 639.35-2075.91-282.57-2669.51-1060.84v-8.12c592.15 778.12 1587.84 1703.58 2667.01 1064.71 422.1-249.88 851.68-416.12 1265.14-496.42 493.06-95.77 963.27-69.39 1370.61 82.95 407.43 152.38 751.96 430.76 993.57 838.88 140.14 236.72 245.66 517.12 308.74 841.86 62.82 323.39 155.87 514.21 267.59 599.72 99.05 75.81 213.04 68.63 333.8-2.36 121.35-71.35 249.54-207.01 376.35-387.69 424.82-605.25 833.63-1714.74 919.67-2604.95-95.87 882.53-498.03 1964.24-915.63 2559.19-127.19 181.22-255.9 317.38-377.89 389.1-122.58 72.07-238.44 79.24-339.3 2.04-112.67-86.23-206.38-278.04-269.45-602.73-62.97-324.18-168.28-604.04-308.13-840.27-241-407.11-584.66-684.78-991.03-836.76-406.47-152.01-875.77-178.33-1367.97-82.72-412.93 80.2-841.97 246.23-1263.57 495.81-1079.99 639.35-2075.91-282.57-2669.51-1060.84v-8.13c592.15 778.13 1587.84 1703.58 2667.01 1064.72 422.1-249.88 851.68-416.12 1265.14-496.42 493.06-95.77 963.27-69.39 1370.61 82.95 407.43 152.38 751.96 430.76 993.57 838.88 140.14 236.72 245.66 517.11 308.74 841.86 62.82 323.39 155.87 514.21 267.59 599.72 99.05 75.81 213.04 68.63 333.8-2.36 121.35-71.34 249.54-207.01 376.35-387.69 424.82-605.25 833.63-1714.74 919.67-2604.95-95.87 882.53-498.03 1964.24-915.63 2559.19-127.19 181.22-255.9 317.38-377.89 389.1-122.58 72.06-238.44 79.23-339.3 2.04-112.67-86.23-206.38-278.04-269.45-602.73-62.97-324.18-168.28-604.05-308.13-840.27-241-407.11-584.66-684.78-991.03-836.76-406.47-152.02-875.77-178.33-1367.97-82.72-412.93 80.2-841.97 246.23-1263.57 495.81-1079.99 639.35-2075.91-282.57-2669.51-1060.84v-8.13c592.15 778.13 1587.84 1703.58 2667.01 1064.72 422.1-249.88 851.68-416.12 1265.14-496.42 493.06-95.77 963.27-69.4 1370.61 82.95 407.43 152.38 751.96 430.75 993.57 838.88 140.14 236.72 245.66 517.11 308.74 841.86 62.82 323.39 155.87 514.21 267.59 599.72 99.05 75.81 213.04 68.63 333.8-2.37 121.35-71.34 249.54-207.01 376.35-387.68 424.82-605.25 833.63-1714.74 919.67-2604.95-95.87 882.52-498.03 1964.24-915.63 2559.19-127.19 181.22-255.9 317.38-377.89 389.1-122.58 72.06-238.44 79.23-339.3 2.04-112.67-86.23-206.38-278.04-269.45-602.73-62.97-324.18-168.28-604.05-308.13-840.27-241-407.11-584.66-684.78-991.03-836.76-406.47-152.02-875.77-178.33-1367.97-82.72-412.93 80.2-841.97 246.22-1263.57 495.8-1079.99 639.36-2075.91-282.56-2669.51-1060.83v-8.13c592.15 778.13 1587.84 1703.58 2667.01 1064.71 422.1-249.87 851.68-416.11 1265.14-496.42 493.06-95.77 963.27-69.39 1370.61 82.96 407.43 152.38 751.96 430.75 993.57 838.88 140.14 236.72 245.66 517.11 308.74 841.86 62.82 323.39 155.87 514.21 267.59 599.72 99.05 75.81 213.04 68.63 333.8-2.37 121.35-71.34 249.54-207.01 376.35-387.68 424.82-605.25 833.63-1714.74 919.67-2604.95-95.87 882.53-498.03 1964.24-915.63 2559.19-127.19 181.22-255.9 317.38-377.89 389.09-122.58 72.07-238.44 79.24-339.3 2.04-112.67-86.23-206.38-278.04-269.45-602.72-62.97-324.19-168.28-604.05-308.13-840.27-241-407.11-584.66-684.78-991.03-836.76-406.47-152.02-875.77-178.33-1367.97-82.72-412.93 80.2-841.97 246.22-1263.57 495.81-1079.99 639.35-2075.91-282.57-2669.51-1060.84v-8.13c592.15 778.13 1587.84 1703.58 2667.01 1064.71 422.1-249.88 851.68-416.11 1265.14-496.41 493.06-95.78 963.27-69.4 1370.61 82.95 407.43 152.38 751.96 430.75 993.57 838.88 140.14 236.72 245.66 517.11 308.74 841.86 62.82 323.39 155.87 514.21 267.59 599.72 99.05 75.8 213.04 68.63 333.8-2.37 121.35-71.34 249.54-207.01 376.35-387.68 424.82-605.25 833.63-1714.74 919.67-2604.95-95.87 882.53-498.03 1964.24-915.63 2559.19-127.19 181.22-255.9 317.37-377.89 389.09-122.58 72.07-238.44 79.24-339.3 2.04-112.67-86.23-206.38-278.04-269.45-602.72-62.97-324.19-168.28-604.05-308.13-840.27-241-407.11-584.66-684.78-991.03-836.76-406.47-152.02-875.77-178.33-1367.97-82.72-412.93 80.19-841.97 246.22-1263.57 495.8-1079.99 639.36-2075.91-282.56-2669.51-1060.83v-8.13c592.15 778.13 1587.84 1703.58 2667.01 1064.71 422.1-249.88 851.68-416.11 1265.14-496.41 493.06-95.78 963.27-69.4 1370.61 82.95 407.43 152.38 751.96 430.75 993.57 838.88 140.14 236.72 245.66 517.11 308.74 841.86 62.82 323.39 155.87 514.21 267.59 599.72 99.05 75.81 213.04 68.63 333.8-2.37 121.35-71.34 249.54-207.01 376.35-387.68 424.82-605.25 833.63-1714.74 919.67-2604.95-95.87 882.52-498.03 1964.24-915.63 2559.19-127.19 181.22-255.9 317.37-377.89 389.09-122.58 72.07-238.44 79.24-339.3 2.04-112.67-86.23-206.38-278.04-269.45-602.72-62.97-324.19-168.28-604.05-308.13-840.27-241-407.11-584.66-684.78-991.03-836.76-406.47-152.02-875.77-178.33-1367.97-82.73-412.93 80.21-841.97 246.23-1263.57 495.81-1079.99 639.36-2075.91-282.56-2669.51-1060.84v-8.12c592.15 778.12 1587.84 1703.58 2667.01 1064.71 422.1-249.88 851.68-416.11 1265.14-496.42 493.06-95.77 963.27-69.39 1370.61 82.96 407.43 152.38 751.96 430.75 993.57 838.88 140.14 236.72 245.66 517.11 308.74 841.86 62.82 323.39 155.87 514.21 267.59 599.72 99.05 75.8 213.04 68.63 333.8-2.37 121.35-71.34 249.54-207.01 376.35-387.69 424.82-605.24 833.63-1714.74 919.67-2604.95-95.87 882.53-498.03 1964.25-915.63 2559.2-127.19 181.22-255.9 317.37-377.89 389.09-122.58 72.07-238.44 79.24-339.3 2.04-112.67-86.23-206.38-278.04-269.45-602.72-62.97-324.19-168.28-604.05-308.13-840.27-241-407.11-584.66-684.78-991.03-836.76-406.47-152.02-875.77-178.34-1367.97-82.73-412.93 80.2-841.97 246.23-1263.57 495.81-1079.99 639.36-2075.91-282.56-2669.51-1060.84v-8.12c592.15 778.13 1587.84 1703.58 2667.01 1064.71 422.1-249.88 851.68-416.11 1265.14-496.42 493.06-95.77 963.27-69.39 1370.61 82.96 407.43 152.38 751.96 430.75 993.57 838.88 140.14 236.72 245.66 517.11 308.74 841.85 62.82 323.4 155.87 514.22 267.59 599.73 99.05 75.8 213.04 68.63 333.8-2.37 121.35-71.34 249.54-207.01 376.35-387.69 424.82-605.25 833.63-1714.73 919.67-2604.94-95.87 882.52-498.03 1964.24-915.63 2559.19-127.19 181.22-255.9 317.37-377.89 389.09-122.58 72.07-238.44 79.24-339.3 2.04-112.67-86.23-206.38-278.04-269.45-602.72-62.97-324.19-168.28-604.05-308.13-840.27-241-407.11-584.66-684.78-991.03-836.76-406.47-152.02-875.77-178.34-1367.97-82.73-412.93 80.2-841.97 246.23-1263.57 495.81-1079.99 639.36-2075.91-282.56-2669.51-1060.84v-8.12c592.15 778.12 1587.84 1703.58 2667.01 1064.71 422.1-249.88 851.68-416.11 1265.14-496.42 493.06-95.77 963.27-69.39 1370.61 82.96 407.43 152.38 751.96 430.75 993.57 838.88 140.14 236.72 245.66 517.11 308.74 841.85 62.82 323.4 155.87 514.22 267.59 599.73 99.05 75.8 213.04 68.63 333.8-2.37 121.35-71.34 249.54-207.01 376.35-387.69 424.82-605.24 833.63-1714.74 919.67-2604.95-95.87 882.53-498.03 1964.25-915.63 2559.2-127.19 181.22-255.9 317.37-377.89 389.09-122.58 72.07-238.44 79.24-339.3 2.04-112.67-86.23-206.38-278.04-269.45-602.72-62.97-324.19-168.28-604.05-308.13-840.28-241-407.1-584.66-684.77-991.03-836.76-406.47-152.01-875.77-178.33-1367.97-82.72-412.93 80.2-841.97 246.23-1263.57 495.81-1079.99 639.36-2075.91-282.56-2669.51-1060.84v-8.12c592.15 778.12 1587.84 1703.58 2667.01 1064.71 422.1-249.88 851.68-416.12 1265.14-496.42 493.06-95.77 963.27-69.39 1370.61 82.96 407.43 152.38 751.96 430.75 993.57 838.88 140.14 236.71 245.66 517.11 308.74 841.85 62.82 323.39 155.87 514.22 267.59 599.73 99.05 75.8 213.04 68.63 333.8-2.37 121.35-71.34 249.54-207.01 376.35-387.69 424.82-605.24 833.63-1714.74 919.67-2604.95-95.87 882.53-498.03 1964.25-915.63 2559.2-127.19 181.21-255.9 317.37-377.89 389.09-122.58 72.07-238.44 79.24-339.3 2.04-112.67-86.23-206.38-278.04-269.45-602.73-62.97-324.18-168.28-604.04-308.13-840.26-241-407.11-584.66-684.78-991.03-836.77-406.47-152.01-875.77-178.33-1367.97-82.72-412.93 80.2-841.97 246.23-1263.57 495.81-1079.99 639.36-2075.91-282.56-2669.51-1060.84v-8.12c592.15 778.12 1587.84 1703.58 2667.01 1064.71 422.1-249.88 851.68-416.12 1265.14-496.42 493.06-95.77 963.27-69.39 1370.61 82.96 407.43 152.38 751.96 430.75 993.57 838.87 140.14 236.73 245.66 517.12 308.74 841.86 62.82 323.39 155.87 514.22 267.59 599.72 99.05 75.81 213.04 68.64 333.8-2.36 121.35-71.34 249.54-207.01 376.35-387.69 424.82-605.25 833.63-1714.74 919.67-2604.95-95.87 882.53-498.03 1964.24-915.63 2559.2-127.19 181.21-255.9 317.37-377.89 389.09-122.58 72.07-238.44 79.24-339.3 2.04-112.67-86.23-206.38-278.04-269.45-602.73-62.97-324.18-168.28-604.04-308.13-840.27-241-407.1-584.66-684.77-991.03-836.76-406.47-152.01-875.77-178.33-1367.97-82.72-412.93 80.2-841.97 246.23-1263.57 495.81-1079.99 639.36-2075.91-282.56-2669.51-1060.84v-8.12c592.15 778.12 1587.84 1703.58 2667.01 1064.71 422.1-249.88 851.68-416.12 1265.14-496.42 493.06-95.77 963.27-69.39 1370.61 82.96 407.43 152.37 751.96 430.75 993.57 838.88 140.14 236.71 245.66 517.11 308.74 841.85 62.82 323.39 155.87 514.21 267.59 599.72 99.05 75.81 213.04 68.64 333.8-2.36 121.35-71.34 249.54-207.01 376.35-387.69 424.82-605.25 833.63-1714.74 919.67-2604.95-95.87 882.53-498.03 1964.24-915.63 2559.2-127.19 181.21-255.9 317.37-377.89 389.09-122.58 72.07-238.44 79.24-339.3 2.04-112.67-86.23-206.38-278.04-269.45-602.73-62.97-324.18-168.28-604.04-308.13-840.27-241-407.11-584.66-684.78-991.03-836.76-406.47-152.01-875.77-178.33-1367.97-82.72-412.93 80.2-841.97 246.23-1263.57 495.81-1079.99 639.35-2075.91-282.57-2669.51-1060.84zm6878.29 3719.61q-4.34-3.07-8.63-6.37c-112.67-86.23-206.38-278.04-269.45-602.72-62.97-324.19-168.28-604.05-308.13-840.27-241-407.11-584.66-684.78-991.03-836.76-406.47-152.02-875.77-178.33-1367.97-82.72-412.93 80.2-841.97 246.22-1263.57 495.8-1079.99 639.36-2075.91-282.56-2669.51-1060.83v-8.13c592.15 778.13 1587.84 1703.58 2667.01 1064.71 422.1-249.88 851.68-416.11 1265.14-496.42 493.06-95.77 963.27-69.39 1370.61 82.96 407.43 152.38 751.96 430.75 993.57 838.88 140.14 236.72 245.66 517.11 308.74 841.85 62.82 323.4 155.87 514.22 267.59 599.73q7.1 5.43 14.3 10.29zm-54.57 0c-92.24-99.98-169.23-281.01-223.51-560.49-62.98-324.19-168.29-604.05-308.14-840.27-241-407.11-584.66-684.78-991.03-836.76-406.47-152.02-875.77-178.33-1367.97-82.72-412.93 80.2-841.97 246.22-1263.56 495.8-1080 639.36-2075.92-282.56-2669.52-1060.83v-8.13c592.15 778.13 1587.84 1703.58 2667.01 1064.71 422.1-249.87 851.68-416.11 1265.15-496.42 493.06-95.77 963.26-69.39 1370.61 82.96 407.42 152.38 751.95 430.75 993.56 838.88 140.15 236.72 245.66 517.11 308.75 841.86 54.73 281.79 132.42 462.9 225.41 561.41zm-39.09 0c-74.97-105.89-138-272.88-184.43-511.89-62.97-324.18-168.28-604.05-308.13-840.27-241-407.11-584.66-684.78-991.03-836.76-406.47-152.02-875.77-178.33-1367.97-82.72-412.93 80.2-841.97 246.23-1263.57 495.81-1079.99 639.35-2075.91-282.57-2669.51-1060.84v-8.13c592.15 778.13 1587.84 1703.58 2667.01 1064.72 422.1-249.89 851.68-416.12 1265.15-496.42 493.05-95.78 963.26-69.4 1370.6 82.95 407.43 152.38 751.96 430.75 993.57 838.88 140.14 236.72 245.66 517.11 308.74 841.86 46.73 240.56 110.19 407.75 185.62 512.81zm-31.05 0c-61.4-105.94-113.51-258.06-153.37-463.29-62.98-324.18-168.29-604.04-308.14-840.27-241-407.11-584.66-684.78-991.03-836.76-406.47-152.01-875.77-178.33-1367.97-82.72-412.93 80.2-841.97 246.23-1263.56 495.81-1080 639.35-2075.92-282.57-2669.52-1060.84v-8.13c592.15 778.13 1587.84 1703.58 2667.01 1064.72 422.1-249.88 851.68-416.12 1265.15-496.42 493.06-95.77 963.26-69.39 1370.61 82.95 407.42 152.38 751.95 430.75 993.56 838.88 140.15 236.72 245.66 517.11 308.75 841.86 40.08 206.36 92.48 358.73 154.18 464.21zm-25.91 0c-50.22-102.2-93.33-238.98-127.46-414.69-62.97-324.18-168.29-604.04-308.13-840.27-241.01-407.11-584.66-684.78-991.04-836.76-406.47-152.02-875.77-178.33-1367.97-82.72-412.92 80.2-841.97 246.23-1263.56 495.81-1080 639.35-2075.92-282.57-2669.52-1060.84v-8.12c592.16 778.12 1587.84 1703.57 2667.01 1064.71 422.1-249.88 851.68-416.12 1265.15-496.42 493.06-95.78 963.27-69.39 1370.61 82.95 407.42 152.38 751.95 430.75 993.56 838.88 140.15 236.72 245.67 517.12 308.75 841.86 34.3 176.59 77.61 313.64 128.07 415.61zm-22.23 0c-40.79-95.74-76.25-216.87-105.24-366.09-62.97-324.18-168.28-604.04-308.13-840.27-241-407.1-584.66-684.78-991.03-836.76-406.47-152.01-875.77-178.33-1367.97-82.72-412.93 80.2-841.97 246.23-1263.57 495.81-1079.99 639.35-2075.91-282.57-2669.51-1060.84v-8.12c592.15 778.12 1587.84 1703.58 2667.01 1064.71 422.1-249.88 851.68-416.12 1265.14-496.42 493.06-95.77 963.27-69.39 1370.61 82.95 407.43 152.38 751.96 430.75 993.57 838.88 140.14 236.72 245.66 517.12 308.74 841.86 29.13 149.93 64.75 271.35 105.72 367.01zm-19.42 0c-32.7-87.17-61.54-192.47-85.82-317.49-62.97-324.18-168.28-604.04-308.13-840.27-241-407.11-584.66-684.77-991.03-836.76-406.48-152.01-875.78-178.33-1367.98-82.72-412.92 80.2-841.96 246.23-1263.56 495.81-1080 639.35-2075.92-282.56-2669.51-1060.84v-8.13c592.15 778.13 1587.84 1703.59 2667 1064.72 422.11-249.88 851.69-416.12 1265.15-496.42 493.06-95.77 963.27-69.39 1370.61 82.95 407.43 152.38 751.96 430.76 993.57 838.88 140.14 236.72 245.66 517.12 308.74 841.86 24.4 125.61 53.37 231.21 86.21 318.41zm-17.2 0c-25.68-76.93-48.69-166.27-68.62-268.89-62.97-324.18-168.28-604.04-308.13-840.27-241-407.11-584.66-684.77-991.03-836.76-406.48-152.01-875.77-178.33-1367.98-82.72-412.92 80.2-841.96 246.23-1263.56 495.81-1080 639.35-2075.92-282.57-2669.51-1060.84v-8.12c592.15 778.12 1587.84 1703.58 2667 1064.71 422.11-249.88 851.69-416.12 1265.15-496.42 493.06-95.77 963.27-69.39 1370.61 82.96 407.43 152.38 751.96 430.75 993.57 838.88 140.14 236.71 245.66 517.11 308.74 841.85 20.03 103.14 43.15 192.77 68.96 269.81zm-15.37 0c-19.56-65.31-37.38-138.58-53.25-220.29-62.97-324.18-168.28-604.04-308.13-840.27-241-407.1-584.66-684.77-991.03-836.76-406.48-152.01-875.78-178.33-1367.98-82.72-412.92 80.2-841.96 246.23-1263.56 495.81-1080 639.36-2075.92-282.56-2669.51-1060.84v-8.12c592.15 778.12 1587.84 1703.58 2667 1064.71 422.11-249.88 851.69-416.11 1265.15-496.42 493.06-95.77 963.27-69.39 1370.61 82.96 407.43 152.37 751.96 430.75 993.57 838.88 140.14 236.71 245.66 517.11 308.74 841.85 15.96 82.15 33.86 155.73 53.53 221.21zm-13.83 0c-14.2-52.51-27.36-109.66-39.41-171.69-62.97-324.18-168.29-604.04-308.13-840.26-241.01-407.11-584.66-684.78-991.04-836.77-406.47-152.01-875.77-178.33-1367.97-82.72-412.92 80.2-841.97 246.23-1263.56 495.81-1080 639.36-2075.92-282.56-2669.52-1060.84v-8.12c592.16 778.12 1587.84 1703.58 2667.01 1064.71 422.1-249.88 851.68-416.12 1265.15-496.42 493.06-95.77 963.27-69.39 1370.61 82.96 407.42 152.38 751.95 430.75 993.57 838.87 140.14 236.73 245.66 517.12 308.74 841.86 12.12 62.42 25.38 119.88 39.67 172.61zm-12.52 0c-9.49-38.71-18.47-79.7-26.9-123.08-62.97-324.19-168.28-604.05-308.13-840.27-241-407.11-584.66-684.78-991.03-836.77-406.47-152.01-875.77-178.32-1367.97-82.72-412.93 80.2-841.97 246.23-1263.57 495.81-1080 639.36-2075.91-282.56-2669.51-1060.84v-8.12c592.15 778.12 1587.84 1703.58 2667.01 1064.71 422.1-249.88 851.68-416.11 1265.14-496.42 493.06-95.77 963.27-69.39 1370.61 82.96 407.43 152.38 751.96 430.75 993.57 838.88 140.14 236.72 245.66 517.11 308.74 841.85 8.5 43.75 17.56 85.05 27.13 124.01zm-11.38 0q-8.04-36.01-15.52-74.48c-62.97-324.19-168.28-604.05-308.13-840.27-241-407.11-584.66-684.78-991.03-836.76-406.48-152.02-875.77-178.34-1367.98-82.73-412.92 80.2-841.96 246.23-1263.56 495.81-1080 639.36-2075.92-282.56-2669.51-1060.84v-8.12c592.15 778.13 1587.84 1703.58 2667 1064.71 422.11-249.88 851.69-416.11 1265.15-496.42 493.06-95.77 963.27-69.39 1370.61 82.96 407.43 152.38 751.96 430.75 993.57 838.88 140.14 236.72 245.66 517.11 308.74 841.85q7.58 38.98 15.73 75.41zm-10.36 0q-2.61-12.8-5.16-25.88c-62.97-324.19-168.28-604.05-308.13-840.27-241-407.11-584.66-684.78-991.03-836.76-406.48-152.02-875.78-178.34-1367.98-82.72-412.92 80.19-841.96 246.22-1263.56 495.8-1080 639.36-2075.92-282.56-2669.51-1060.84v-8.12c592.15 778.13 1587.84 1703.58 2667 1064.71 422.11-249.88 851.69-416.11 1265.15-496.42 493.06-95.77 963.27-69.39 1370.61 82.96 407.43 152.38 751.96 430.75 993.57 838.88 140.14 236.72 245.66 517.11 308.74 841.85q2.64 13.57 5.35 26.81zm-9.67 0c-63.43-314.55-167.05-586.87-303.62-817.55-241.01-407.11-584.66-684.78-991.04-836.76-406.47-152.02-875.77-178.33-1367.97-82.73-412.92 80.21-841.96 246.23-1263.56 495.81-1080 639.36-2075.92-282.56-2669.51-1060.84v-8.12c592.15 778.13 1587.83 1703.58 2667 1064.71 422.1-249.88 851.69-416.11 1265.15-496.42 493.06-95.77 963.27-69.39 1370.61 82.96 407.43 152.38 751.95 430.75 993.57 838.88 136.99 231.4 240.89 504.56 304.42 820.06zm-10.19 0c-64.08-294.08-163.95-550.23-293.44-768.95-241-407.11-584.66-684.78-991.03-836.76-406.47-152.02-875.77-178.33-1367.97-82.72-412.93 80.19-841.97 246.22-1263.57 495.8-1080 639.36-2075.91-282.56-2669.51-1060.83v-8.13c592.15 778.13 1587.84 1703.58 2667.01 1064.71 422.1-249.88 851.68-416.11 1265.14-496.41 493.06-95.78 963.27-69.4 1370.61 82.95 407.43 152.38 751.96 430.75 993.57 838.88 129.91 219.44 230.07 476.42 294.25 771.46zm-10.98 0c-64.25-273.79-160.15-513.76-282.46-720.35-241-407.11-584.66-684.78-991.03-836.76-406.47-152.02-875.77-178.33-1367.97-82.72-412.93 80.2-841.97 246.22-1263.56 495.81-1080 639.35-2075.92-282.57-2669.52-1060.84v-8.13c592.15 778.13 1587.84 1703.58 2667.01 1064.71 422.1-249.87 851.68-416.11 1265.15-496.41 493.06-95.78 963.26-69.39 1370.61 82.95 407.42 152.38 751.95 430.75 993.56 838.88 122.73 207.3 218.91 448.11 283.28 722.86zm-11.84 0c-63.95-253.69-155.6-477.48-270.61-671.75-241-407.11-584.66-684.78-991.03-836.76-406.48-152.02-875.77-178.33-1367.98-82.72-412.92 80.2-841.96 246.22-1263.56 495.81-1080 639.35-2075.92-282.57-2669.51-1060.84v-8.13c592.15 778.13 1587.84 1703.58 2667 1064.71 422.11-249.87 851.69-416.11 1265.15-496.41 493.06-95.78 963.27-69.4 1370.61 82.95 407.43 152.38 751.96 430.75 993.57 838.88 115.44 195 207.38 419.63 271.46 674.26zm2422.65-4000c4.89 1.22 9.76 2.45 14.66 3.86v7.19c-17.51-5.02-34.91-8.8-52.15-11.05zm-2435.34 4000c-63.15-233.76-150.31-441.37-257.92-623.15-241-407.11-584.66-684.78-991.03-836.76-406.47-152.02-875.77-178.33-1367.97-82.72-412.93 80.2-841.97 246.23-1263.57 495.81-1080 639.35-2075.92-282.57-2669.51-1060.84v-8.13c592.15 778.13 1587.84 1703.58 2667 1064.72 422.11-249.88 851.69-416.12 1265.15-496.42 493.06-95.77 963.27-69.39 1370.61 82.95 407.43 152.38 751.96 430.75 993.57 838.88 108.04 182.49 195.5 390.95 258.8 625.66z"/>
		</clipPath>
		<linearGradient id="g1" x2="1" gradientUnits="userSpaceOnUse" gradientTransform="matrix(-9021.6,0,0,-4035.002,9022.064,4016.911)">
			<stop offset="0" stop-color="#fc67fa"/>
			<stop offset=".47" stop-color="#ffd4f7"/>
			<stop offset="1" stop-color="#39d5ff"/>
		</linearGradient>
	</defs>
	<style>
		.s0 { fill: url(#g1) } 
	</style>
	<g id="_Artboards_">
	</g>
	<g id="Layer 1">
		<g id="&lt;Clip Group&gt;" clip-path="url(#cp1)">
			<path id="&lt;Path&gt;" class="s0" d="m0.5 4016.9h9000v-4025.3h-9000z"/>
		</g>
	</g>
</svg>