<svg xmlns="http://www.w3.org/2000/svg" version="1.1" xmlns:xlink="http://www.w3.org/1999/xlink" xmlns:svgjs="http://svgjs.dev/svgjs" viewBox="0 0 800 800"><g transform="matrix(1,0,0,1,0,0)"><path d="M563.998521857573 763.133284243966C565.2370365321069 762.4183562514911 566.7629634678931 762.4183562514911 568.001478142427 763.1334843917803L589.9985235189563 775.8334636489221C591.2370381934901 776.5483916413971 592.0000016613833 777.8699676588415 592.0000016613833 779.3000237916056V804.6999823058892C592.0000016613833 806.1300384386533 591.2370381934901 807.4516144560978 589.9985235189563 808.1667425963869L568.001478142427 820.8667218535288C566.7629634678931 821.5816498460038 565.2370365321069 821.5816498460038 563.998521857573 820.8665217057146L542.0014764810437 808.1665424485727C540.76296180651 807.4516144560978 539.9999983386167 806.1300384386533 539.9999983386167 804.6999823058892V779.3000237916056C539.9999983386167 777.8699676588415 540.76296180651 776.5483916413971 542.0014764810437 775.8332635011079L563.998521857573 763.133284243966Z " stroke-width="13.5" stroke="#ff3895" fill="none" opacity="0.01" transform="rotate(106, 400, 400)"></path><path d="M549.3697343487688 718.9939501575899C551.1004792144636 717.9948841168236 553.2328642913958 717.9948841168236 554.9636091570903 718.9942298513303L585.7030700037787 736.7416367619516C587.4338148694735 737.7407028027178 588.5000074079396 739.5875205706851 588.5000074079396 741.585932345958V777.0807461672005C588.5000074079396 779.0791579424733 587.4338148694735 780.9259757104406 585.7030700037787 781.9253214449473L554.9636091570903 799.6727283555686C553.2328642913958 800.6717943963347 551.1004792144636 800.6717943963347 549.3697343487688 799.6724486618282L518.6302735020805 781.9250417512069C516.8995286363859 780.9259757104406 515.8333360979198 779.0791579424733 515.8333360979198 777.0807461672005V741.585932345958C515.8333360979198 739.5875205706851 516.8995286363859 737.7407028027178 518.6302735020805 736.7413570682111L549.3697343487688 718.9939501575899Z " stroke-width="13.708333333333334" stroke="#f645a1" fill="none" opacity="0.0925" transform="rotate(97.16666666666667, 400, 400)"></path><path d="M534.7409315811758 674.8546160712135C536.9639066380314 673.5714119821561 539.7027498561093 673.5714119821561 541.9257249129648 674.8549753108801L581.4076012298124 697.6498098749809C583.630576286668 698.9330139640383 584.9999978957069 701.3050734825285 584.9999978957069 703.8718409003102V749.4615100285116C584.9999978957069 752.0282774462933 583.630576286668 754.4003369647835 581.4076012298124 755.6839002935076L541.9257249129648 778.4787348576083C539.7027498561093 779.7619389466657 536.9639066380314 779.7619389466657 534.7409315811758 778.4783756179417L495.25905526432837 755.6835410538409C493.0360802074728 754.4003369647835 491.6666585984338 752.0282774462933 491.6666585984338 749.4615100285116V703.8718409003102C491.6666585984338 701.3050734825285 493.0360802074728 698.9330139640383 495.25905526432837 697.6494506353142L534.7409315811758 674.8546160712135Z " stroke-width="13.916666666666666" stroke="#ed50ab" fill="none" opacity="0.17500000000000002" transform="rotate(88.33333333333333, 400, 400)"></path><path d="M520.1121440723716 630.7152667260483C522.8273493203881 629.1479245886994 526.1726506796119 629.1479245886994 528.8878559276284 630.7157055116411L577.1121477146348 658.5579677292212C579.8273529626513 660.12530986657 581.5000036422632 663.022611135583 581.5000036422632 666.1577341958734V721.8422586310337C581.5000036422632 724.9773816913241 579.8273529626513 727.8746829603372 577.1121477146348 729.4424638832788L528.8878559276284 757.284726100859C526.1726506796119 758.8520682382077 522.8273493203881 758.8520682382077 520.1121440723716 757.2842873152662L471.8878522853651 729.442025097686C469.1726470373487 727.8746829603372 467.4999963577368 724.9773816913241 467.4999963577368 721.8422586310337V666.1577341958734C467.4999963577368 663.022611135583 469.1726470373487 660.12530986657 471.8878522853651 658.5575289436284L520.1121440723716 630.7152667260483Z " stroke-width="14.125" stroke="#e35ab5" fill="none" opacity="0.2575" transform="rotate(79.5, 400, 400)"></path><path d="M505.4833565635676 586.5759326396721C508.6907920027449 584.724452454032 512.6425515031146 584.724452454032 515.8499869422919 586.5764509711911L572.8166941994575 619.4661408422506C576.0241296386348 621.3176210278907 578.0000093888195 624.7401640474266 578.0000093888195 628.4436427502259V694.223022492345C578.0000093888195 697.9265011951443 576.0241296386348 701.3490442146801 572.8166941994575 703.2010427318392L515.8499869422919 736.0907326028987C512.6425515031146 737.9422127885389 508.6907920027449 737.9422127885389 505.4833565635676 736.0902142713798L448.516649306402 703.2005244003202C445.3092138672247 701.3490442146801 443.33333411703984 697.9265011951443 443.33333411703984 694.223022492345V628.4436427502259C443.33333411703984 624.7401640474266 445.3092138672247 621.3176210278907 448.516649306402 619.4656225107317L505.4833565635676 586.5759326396721Z " stroke-width="14.333333333333334" stroke="#d962bf" fill="none" opacity="0.34" transform="rotate(70.66666666666666, 400, 400)"></path><path d="M490.85455379597437 542.4365832945069C494.5542194263125 540.3009650605754 499.11243706782807 540.3009650605754 502.81210269816626 542.437181171952L568.5212254254909 580.374298696491C572.220891055829 582.5099169304224 574.4999998765868 586.457701700481 574.4999998765868 590.7295360457892V666.6037710948672C574.4999998765868 670.8756054401751 572.220891055829 674.8233902102338 568.5212254254909 676.9596063216104L502.81210269816626 714.8967238461494C499.11243706782807 717.0323420800809 494.5542194263125 717.0323420800809 490.85455379597437 714.8961259687043L425.14543106864966 676.9590084441653C421.4457654383115 674.8233902102338 419.16665661755377 670.8756054401751 419.16665661755377 666.6037710948672V590.7295360457892C419.16665661755377 586.457701700481 421.4457654383115 582.5099169304224 425.14543106864966 580.3737008190459L490.85455379597437 542.4365832945069Z " stroke-width="14.541666666666666" stroke="#cf6ac8" fill="none" opacity="0.42250000000000004" transform="rotate(61.83333333333333, 400, 400)"></path><path d="M476.22576628717025 498.2972492081306C480.4176621086693 495.87749292590786 485.5823378913307 495.87749292590786 489.77423371282975 498.2979266315019L564.2257719103135 541.2824718095203C568.4176677318126 543.7022280917431 571.0000056231432 548.1752546123246 571.0000056231432 553.0154446001413V638.9845349561782C571.0000056231432 643.8247249439951 568.4176677318126 648.2977514645765 564.2257719103135 650.7181851701706L489.77423371282975 693.7027303481891C485.5823378913307 696.1224866304118 480.4176621086693 696.1224866304118 476.22576628717025 693.7020529248177L401.7742280896865 650.7175077467994C397.5823322681875 648.2977514645765 394.99999437685676 643.8247249439951 394.99999437685676 638.9845349561782V553.0154446001413C394.99999437685676 548.1752546123246 397.5823322681875 543.7022280917431 401.7742280896865 541.281794386149L476.22576628717025 498.2972492081306Z " stroke-width="14.75" stroke="#c472d1" fill="none" opacity="0.505" transform="rotate(53, 400, 400)"></path><path d="M461.5969635195771 454.1579151217544C466.281089532237 451.4540207912403 472.0522234560442 451.4540207912403 476.73634946870413 454.15867209105187L559.930303136347 502.1906449225497C564.6144291490068 504.89453925306384 567.4999961109105 509.8928075241681 567.4999961109105 515.3013531544938V611.3652988174895C567.4999961109105 616.7738444478151 564.6144291490068 621.7721127189194 559.930303136347 624.4767640187309L476.73634946870413 672.5087368502288C472.0522234560442 675.2126311807428 466.281089532237 675.2126311807428 461.5969635195771 672.5079798809313L378.4030098519342 624.4760070494335C373.7188838392743 621.7721127189194 370.8333168773707 616.7738444478151 370.8333168773707 611.3652988174895V515.3013531544938C370.8333168773707 509.8928075241681 373.7188838392743 504.89453925306384 378.4030098519342 502.1898879532523L461.5969635195771 454.1579151217544Z " stroke-width="14.958333333333334" stroke="#b879d9" fill="none" opacity="0.5875" transform="rotate(44.166666666666664, 400, 400)"></path><path d="M446.968176010773 410.01858103537825C452.14453221459377 407.0305486565728 458.52212427954686 407.0305486565728 463.69848048336763 410.0194175506019L555.6348496211695 463.09881803557914C560.8112058249903 466.08685041438457 564.0000018574669 471.61036043601166 564.0000018574669 477.58726170884614V583.7460626788007C564.0000018574669 589.7229639516352 560.8112058249903 595.2464739732623 555.6348496211695 598.2353428672914L463.69848048336763 651.3147433522686C458.52212427954686 654.302775731074 452.14453221459377 654.302775731074 446.968176010773 651.3139068370449L355.03180687297106 598.2345063520677C349.8554506691503 595.2464739732623 346.66665463667374 589.7229639516352 346.66665463667374 583.7460626788007V477.58726170884614C346.66665463667374 471.61036043601166 349.8554506691503 466.08685041438457 355.03180687297106 463.0979815203555L446.968176010773 410.01858103537825Z " stroke-width="15.166666666666666" stroke="#ab7fe1" fill="none" opacity="0.67" transform="rotate(35.33333333333333, 400, 400)"></path><path d="M432.33938850196887 365.8792393196074C438.00797489695054 362.6070688925107 444.99202510304946 362.6070688925107 450.66061149803113 365.8801553807572L551.3393961059921 424.0069835192139C557.0079825009738 427.27915394631066 560.5000076040233 433.32790571846056 560.5000076040233 439.8731626338039V556.1268189107172C560.5000076040233 562.6720758260606 557.0079825009738 568.7208275982105 551.3393961059921 571.9939140864569L450.66061149803113 630.1207422249138C444.99202510304946 633.3929126520104 438.00797489695054 633.3929126520104 432.33938850196887 630.119826163764L331.66060389400786 571.9929980253072C325.99201749902625 568.7208275982105 322.4999923959768 562.6720758260606 322.4999923959768 556.1268189107172V439.8731626338039C322.4999923959768 433.32790571846056 325.99201749902625 427.27915394631066 331.66060389400786 424.00606745806414L432.33938850196887 365.8792393196074Z " stroke-width="15.375" stroke="#9e86e9" fill="none" opacity="0.7525000000000001" transform="rotate(26.5, 400, 400)"></path><path d="M417.7105857343757 321.7399052332312C423.8714023205182 318.1835967578432 431.461910667763 318.1835967578432 437.6227272539055 321.7409008403072L547.0439273320256 384.91515663224334C553.2047439181681 388.4714651076314 556.9999980917905 395.04545863030415 556.9999980917905 402.1590711881562V528.5075827720285C556.9999980917905 535.6211953298805 553.2047439181681 542.1951888525533 547.0439273320256 545.7524929350172L437.6227272539055 608.9267487269534C431.461910667763 612.4830572023415 423.8714023205182 612.4830572023415 417.7105857343757 608.9257531198774L308.2893856562556 545.7514973279414C302.1285690701131 542.1951888525533 298.3333148964907 535.6211953298805 298.3333148964907 528.5075827720285V402.1590711881562C298.3333148964907 395.04545863030415 302.1285690701131 388.4714651076314 308.2893856562556 384.9141610251674L417.7105857343757 321.7399052332312Z " stroke-width="15.583333333333334" stroke="#8f8cf1" fill="none" opacity="0.8350000000000001" transform="rotate(17.666666666666657, 400, 400)"></path><path d="M403.0818134843607 277.600571146855C409.7348602616641 273.76012462317567 417.93182675005465 273.76012462317567 424.58487352735807 277.6016462998571L542.7484890756373 345.8233297452727C549.4015358529407 349.66377626895206 553.5000190971359 356.76301154214764 553.5000190971359 364.4449797425085V500.8883466333397C553.5000190971359 508.5703148337006 549.4015358529407 515.6695501068962 542.7484890756373 519.5110717835776L424.58487352735807 587.7327552289933C417.93182675005465 591.5732017526725 409.7348602616641 591.5732017526725 403.0818134843607 587.7316800759911L284.9181979360815 519.5099966305754C278.2651511587781 515.6695501068962 274.16666791458283 508.5703148337006 274.16666791458283 500.8883466333397V364.4449797425085C274.16666791458283 356.76301154214764 278.2651511587781 349.66377626895206 284.9181979360815 345.8222545922706L403.0818134843607 277.600571146855Z " stroke-width="15.791666666666668" stroke="#7e91f8" fill="none" opacity="0.9175000000000001" transform="rotate(8.833333333333329, 400, 400)"></path><path d="M388.4530107167675 233.46125231926777C395.59828768523175 229.33666774729716 404.40171231476825 229.33666774729716 411.5469892832325 233.46240701819613L538.4530203016707 306.7315181170911C545.5982972701349 310.8561026890618 550.0000095849032 318.48057971278024 550.0000095849032 326.7309035556499V473.2691257534399C550.0000095849032 481.5194495963096 545.5982972701349 489.14392662002797 538.4530203016707 493.26966589092694L411.5469892832325 566.538776989822C404.40171231476825 570.6633615617925 395.59828768523175 570.6633615617925 388.4530107167675 566.5376222908938L261.54697969832927 493.26851119199864C254.401702729865 489.14392662002797 249.99999041509682 481.5194495963096 249.99999041509682 473.2691257534399V326.7309035556499C249.99999041509682 318.48057971278024 254.401702729865 310.8561026890618 261.54697969832927 306.7303634181629L388.4530107167675 233.46125231926777Z " stroke-width="16" stroke="#6b97ff" fill="none" opacity="1" transform="rotate(0, 400, 400)"></path></g></svg>